<svg width="20" height="20" viewBox="0 0 20 20" fill="none" xmlns="http://www.w3.org/2000/svg">
<path d="M13.75 6.25V8.125C13.75 8.29076 13.6842 8.44973 13.5669 8.56694C13.4497 8.68415 13.2908 8.75 13.125 8.75H12.5V6.25H7.5V8.75H6.875C6.70924 8.75 6.55027 8.68415 6.43306 8.56694C6.31585 8.44973 6.25 8.29076 6.25 8.125V6.25H3.75V17.5H16.25V6.25H13.75ZM6.25 5C6.25 4.00544 6.64509 3.05161 7.34835 2.34835C8.05161 1.64509 9.00544 1.25 10 1.25C10.9946 1.25 11.9484 1.64509 12.6517 2.34835C13.3549 3.05161 13.75 4.00544 13.75 5H16.875C17.0408 5 17.1997 5.06585 17.3169 5.18306C17.4342 5.30027 17.5 5.45924 17.5 5.625V18.125C17.5 18.2908 17.4342 18.4497 17.3169 18.5669C17.1997 18.6842 17.0408 18.75 16.875 18.75H3.125C2.95924 18.75 2.80027 18.6842 2.68306 18.5669C2.56585 18.4497 2.5 18.2908 2.5 18.125V5.625C2.5 5.45924 2.56585 5.30027 2.68306 5.18306C2.80027 5.06585 2.95924 5 3.125 5H6.25ZM7.5 5H12.5C12.5 4.33696 12.2366 3.70107 11.7678 3.23223C11.2989 2.76339 10.663 2.5 10 2.5C9.33696 2.5 8.70107 2.76339 8.23223 3.23223C7.76339 3.70107 7.5 4.33696 7.5 5Z" fill="#3a3845"/>
<path d="M3.75 13.75H16.25V15H3.75V13.75Z" fill="#3a3845"/>
</svg>
