<svg width="22" height="18" viewBox="0 0 22 18" fill="none" xmlns="http://www.w3.org/2000/svg">
<path d="M19.4219 2.8125H2.57812C2.48359 2.8125 2.40625 2.87578 2.40625 2.95312V4.07812C2.40625 4.15547 2.48359 4.21875 2.57812 4.21875H19.4219C19.5164 4.21875 19.5938 4.15547 19.5938 4.07812V2.95312C19.5938 2.87578 19.5164 2.8125 19.4219 2.8125ZM19.4219 13.7812H2.57812C2.48359 13.7812 2.40625 13.8445 2.40625 13.9219V15.0469C2.40625 15.1242 2.48359 15.1875 2.57812 15.1875H19.4219C19.5164 15.1875 19.5938 15.1242 19.5938 15.0469V13.9219C19.5938 13.8445 19.5164 13.7812 19.4219 13.7812ZM19.4219 8.29688H2.57812C2.48359 8.29688 2.40625 8.36016 2.40625 8.4375V9.5625C2.40625 9.63984 2.48359 9.70312 2.57812 9.70312H19.4219C19.5164 9.70312 19.5938 9.63984 19.5938 9.5625V8.4375C19.5938 8.36016 19.5164 8.29688 19.4219 8.29688Z" fill="#3a3845"/>
</svg>
