<svg width="24" height="24" viewBox="0 0 24 24" fill="none" xmlns="http://www.w3.org/2000/svg">
<path d="M17.29 5.71022C17.1975 5.61752 17.0876 5.54397 16.9666 5.49379C16.8456 5.44361 16.7159 5.41778 16.585 5.41778C16.454 5.41778 16.3243 5.44361 16.2034 5.49379C16.0824 5.54397 15.9725 5.61752 15.88 5.71022L12 9.58022L8.10998 5.70022C8.0174 5.60764 7.90749 5.5342 7.78652 5.4841C7.66556 5.43399 7.53591 5.4082 7.40498 5.4082C7.27405 5.4082 7.1444 5.43399 7.02344 5.4841C6.90247 5.5342 6.79256 5.60764 6.69998 5.70022C6.6074 5.79281 6.53396 5.90272 6.48385 6.02368C6.43375 6.14464 6.40796 6.27429 6.40796 6.40522C6.40796 6.53615 6.43375 6.6658 6.48385 6.78677C6.53396 6.90773 6.6074 7.01764 6.69998 7.11022L11.29 11.7002C11.68 12.0902 12.31 12.0902 12.7 11.7002L17.29 7.11022C17.3826 7.0187 17.4562 6.9097 17.5064 6.78954C17.5566 6.66938 17.5824 6.54045 17.5824 6.41022C17.5824 6.28 17.5566 6.15107 17.5064 6.03091C17.4562 5.91075 17.3826 5.80175 17.29 5.71022Z" fill="#404040" fill-opacity="0.72"/>
<path d="M17.29 12.3001C17.1975 12.2074 17.0876 12.1338 16.9666 12.0836C16.8456 12.0335 16.716 12.0076 16.585 12.0076C16.454 12.0076 16.3243 12.0335 16.2034 12.0836C16.0824 12.1338 15.9725 12.2074 15.88 12.3001L12 16.1701L8.11999 12.2901C7.93301 12.1031 7.67942 11.998 7.41499 11.998C7.15056 11.998 6.89697 12.1031 6.70999 12.2901C6.52301 12.477 6.41797 12.7306 6.41797 12.9951C6.41797 13.2595 6.52301 13.5131 6.70999 13.7001L11.3 18.2901C11.69 18.6801 12.32 18.6801 12.71 18.2901L17.3 13.7001C17.4836 13.5127 17.5856 13.2603 17.5837 12.998C17.5818 12.7357 17.4762 12.4848 17.29 12.3001Z" fill="#404040" fill-opacity="0.72"/>
</svg>
